HIERARCHY
ROOT joint_Root
{
	OFFSET 0.0 0.0 0.0
	CHANNELS 6 Xposition Yposition Zposition Zrotation Xrotation Yrotation 
	JOINT Hips
	{
		OFFSET -0.726466 93.3139 -2.00062
		CHANNELS 6 Xposition Yposition Zposition Zrotation Xrotation Yrotation 
		JOINT Spine
		{
			OFFSET 15.7357 0.0 0.0
			CHANNELS 6 Xposition Yposition Zposition Zrotation Xrotation Yrotation 
			JOINT Chest
			{
				OFFSET 8.98455 -0.406207 0.0
				CHANNELS 6 Xposition Yposition Zposition Zrotation Xrotation Yrotation 
				JOINT Neck
				{
					OFFSET 16.3773 0.0 0.0
					CHANNELS 6 Xposition Yposition Zposition Zrotation Xrotation Yrotation 
					JOINT Head
					{
						OFFSET 6.45672 0.0 0.0
						CHANNELS 6 Xposition Yposition Zposition Zrotation Xrotation Yrotation 
						End Site
						{
							OFFSET 0.0 0.0 0.0
						}
					}
				}
				JOINT Shoulder_L
				{
					OFFSET 12.9942 -0.242716 4.98039
					CHANNELS 6 Xposition Yposition Zposition Zrotation Xrotation Yrotation 
					JOINT UpperArm_L
					{
						OFFSET 5.34809 0.0 0.0
						CHANNELS 6 Xposition Yposition Zposition Zrotation Xrotation Yrotation 
						JOINT LowerArm_L
						{
							OFFSET 24.3286 1.87007e-05 0.0
							CHANNELS 6 Xposition Yposition Zposition Zrotation Xrotation Yrotation 
							JOINT Hand_L
							{
								OFFSET 22.2916 0.0 0.0
								CHANNELS 6 Xposition Yposition Zposition Zrotation Xrotation Yrotation 
								End Site
								{
									OFFSET 0.0 0.0 0.0
								}
							}
						}
					}
				}
				JOINT Shoulder_R
				{
					OFFSET 12.9945 -0.242716 -4.98039
					CHANNELS 6 Xposition Yposition Zposition Zrotation Xrotation Yrotation 
					JOINT UpperArm_R
					{
						OFFSET -5.34813 0.0 0.0
						CHANNELS 6 Xposition Yposition Zposition Zrotation Xrotation Yrotation 
						JOINT LowerArm_R
						{
							OFFSET -24.3289 0.000322201 0.0
							CHANNELS 6 Xposition Yposition Zposition Zrotation Xrotation Yrotation 
							JOINT Hand_R
							{
								OFFSET -22.2915 -0.000108084 0.0
								CHANNELS 6 Xposition Yposition Zposition Zrotation Xrotation Yrotation 
								End Site
								{
									OFFSET 0.0 0.0 0.0
								}
							}
						}
					}
				}
			}
		}
		JOINT UpperLeg_L
		{
			OFFSET -2.19248 -6.46944 0.0
			CHANNELS 6 Xposition Yposition Zposition Zrotation Xrotation Yrotation 
			JOINT LowerLeg_L
			{
				OFFSET 39.0811 0.0 -1.23785e-05
				CHANNELS 6 Xposition Yposition Zposition Zrotation Xrotation Yrotation 
				JOINT Foot_L
				{
					OFFSET 40.9854 0.0 -1.26872e-05
					CHANNELS 6 Xposition Yposition Zposition Zrotation Xrotation Yrotation 
					JOINT Toes_L
					{
						OFFSET 11.7543 0.0 0.0
						CHANNELS 6 Xposition Yposition Zposition Zrotation Xrotation Yrotation 
						End Site
						{
							OFFSET 0.0 0.0 0.0
						}
					}
				}
			}
		}
		JOINT UpperLeg_R
		{
			OFFSET -2.19251 6.46944 0.0
			CHANNELS 6 Xposition Yposition Zposition Zrotation Xrotation Yrotation 
			JOINT LowerLeg_R
			{
				OFFSET -39.0811 -0.00228153 -0.0401928
				CHANNELS 6 Xposition Yposition Zposition Zrotation Xrotation Yrotation 
				JOINT Foot_R
				{
					OFFSET -40.9854 0.0 0.0
					CHANNELS 6 Xposition Yposition Zposition Zrotation Xrotation Yrotation 
					JOINT Toes_R
					{
						OFFSET -11.7543 0.0 0.0
						CHANNELS 6 Xposition Yposition Zposition Zrotation Xrotation Yrotation 
						End Site
						{
							OFFSET 0.0 0.0 0.0
						}
					}
				}
			}
		}
	}
}
MOTION
Frames:	4
Frame Time:	0.0333333
0.000000 0.000000 0.000000 0.000000 0.000000 -0.000000 -1.830240 92.339200 -0.393016 87.846000 -0.683157 4.290660 15.735700 0.000005 -0.000001 93.843800 85.521300 -94.087200 8.984550 -0.406207 -0.000000 1.172710 0.614209 -0.492743 16.377300 -0.000001 -0.000001 4.596370 -4.379780 3.340110 6.456720 -0.000001 -0.000000 6.408440 -5.410960 -6.587800 12.994200 -0.242716 4.980390 -89.508500 -1.575900 -72.674600 5.348090 -0.000007 -0.000001 -72.171100 35.624000 -11.085600 24.328600 0.000019 0.000005 2.132970 7.097510 -16.774000 22.291600 -0.000001 0.000005 6.365510 5.425980 -3.800290 12.994500 -0.242716 -4.980390 91.940400 -4.693400 -67.507500 -5.348130 -0.000001 -0.000004 -37.767500 -48.947700 -99.717900 -24.328900 0.000322 -0.000009 25.149200 13.324300 -63.856000 -22.291500 -0.000108 -0.000004 53.857800 5.681860 -21.662800 -2.192480 -6.469440 -0.000000 -174.110000 -8.931440 -2.112040 39.081100 -0.000007 -0.000012 -0.122166 0.294897 22.502800 40.985400 -0.000006 -0.000013 -0.891238 4.551800 -66.065500 11.754300 -0.000000 0.000003 -0.000059 -0.000651 -16.602800 -2.192510 6.469440 -0.000001 -179.371000 16.548900 -179.214000 -39.081100 -0.002282 -0.040193 -0.004793 0.023829 18.810200 -40.985400 0.000008 0.000006 5.522390 8.374670 -66.182700 -11.754300 -0.000006 -0.000006 -0.007572 -0.084504 -20.013800
0.000000 0.000000 0.000000 0.000000 0.000000 -0.000000 -1.923800 92.331700 -0.388339 87.821300 -0.217196 4.256290 15.735700 0.000005 -0.000001 94.663100 85.517900 -95.021800 8.984550 -0.406207 -0.000000 1.171080 0.749081 -0.724388 16.377300 -0.000001 -0.000001 4.479730 -4.399350 3.539750 6.456720 -0.000001 -0.000000 6.558350 -5.606080 -6.242140 12.994200 -0.242716 4.980390 -89.525600 -1.516410 -72.623600 5.348090 -0.000007 -0.000001 -71.285800 35.813200 -11.898700 24.328600 0.000019 0.000005 2.102740 6.714410 -17.433500 22.291600 -0.000001 0.000005 6.288760 5.430650 -3.961690 12.994500 -0.242716 -4.980390 91.927300 -4.695220 -67.652800 -5.348130 -0.000001 -0.000004 -40.489700 -49.044500 -100.525000 -24.328900 0.000322 -0.000009 22.047400 14.067000 -59.024300 -22.291500 -0.000108 -0.000004 53.857700 5.682010 -19.979000 -2.192480 -6.469440 -0.000000 -174.041000 -8.615990 -2.267550 39.081100 -0.000007 -0.000012 -0.124872 0.300274 22.580600 40.985400 -0.000006 -0.000013 -0.922276 4.731740 -66.055100 11.754300 -0.000000 0.000003 -0.000048 -0.000549 -16.598900 -2.192510 6.469440 -0.000001 -179.263000 16.847800 -179.220000 -39.081100 -0.002282 -0.040193 -0.002027 0.015719 18.798100 -40.985400 0.000008 0.000006 5.632270 8.154220 -66.229100 -11.754300 -0.000006 -0.000006 -0.007603 -0.084761 -20.024200
0.000000 0.000000 0.000000 0.000000 0.000000 -0.000000 -1.978550 92.341900 -0.387758 87.852200 0.518875 4.224250 15.735700 0.000005 -0.000001 95.708700 85.502200 -96.222600 8.984550 -0.406207 -0.000000 1.189510 0.923900 -1.036500 16.377300 -0.000001 -0.000001 4.367280 -4.142700 3.552450 6.456720 -0.000001 -0.000000 6.397040 -5.523350 -6.231770 12.994200 -0.242716 4.980390 -89.600700 -1.260270 -72.419500 5.348090 -0.000007 -0.000001 -70.086100 35.924900 -12.924400 24.328600 0.000019 0.000005 2.029380 6.033560 -18.630400 22.291600 -0.000001 0.000005 6.271980 5.437470 -4.197390 12.994500 -0.242716 -4.980390 91.896500 -4.639970 -67.739200 -5.348130 -0.000001 -0.000004 -45.100100 -49.388200 -101.827000 -24.328900 0.000322 -0.000009 16.346600 12.995200 -52.514900 -22.291500 -0.000108 -0.000004 48.649300 5.656630 -15.363300 -2.192480 -6.469440 -0.000000 -174.072000 -8.119730 -2.407330 39.081100 -0.000007 -0.000012 -0.124180 0.299487 22.521000 40.985400 -0.000006 -0.000013 -0.920873 4.955490 -65.949600 11.754300 -0.000000 0.000003 -0.000050 -0.000564 -16.599400 -2.192510 6.469440 -0.000001 -179.243000 17.380400 -179.162000 -39.081100 -0.002282 -0.040193 0.003809 -0.001433 18.693700 -40.985400 0.000008 0.000006 5.829670 7.903760 -66.262000 -11.754300 -0.000006 -0.000006 -0.007379 -0.082886 -19.947700
0.000000 0.000000 0.000000 0.000000 0.000000 -0.000000 -2.044140 92.346100 -0.377958 87.883200 1.417150 4.115610 15.735700 0.000005 -0.000001 96.474700 85.512200 -97.166400 8.984550 -0.406207 -0.000000 1.159250 1.051560 -1.393000 16.377300 -0.000001 -0.000001 4.296810 -3.676720 3.399460 6.456720 -0.000001 -0.000000 6.098670 -5.032900 -6.385950 12.994200 -0.242716 4.980390 -89.647700 -1.093480 -72.140000 5.348090 -0.000007 -0.000001 -68.974400 36.009900 -13.830900 24.328600 0.000019 0.000005 1.960140 5.305530 -20.310800 22.291600 -0.000001 0.000005 6.378810 5.446680 -4.521490 12.994500 -0.242716 -4.980390 91.949200 -4.785910 -67.809000 -5.348130 -0.000001 -0.000004 -51.276600 -49.729800 -103.688000 -24.328900 0.000322 -0.000009 10.696700 10.617300 -45.704200 -22.291500 -0.000108 -0.000004 42.927500 5.561530 -9.115590 -2.192480 -6.469440 -0.000000 -174.106000 -7.635670 -2.667570 39.081100 -0.000007 -0.000012 -0.123935 0.299043 22.511000 40.985400 -0.000006 -0.000013 -0.887486 5.322330 -65.860200 11.754300 -0.000000 0.000003 -0.000062 -0.000685 -16.604100 -2.192510 6.469440 -0.000001 -179.213000 17.894000 -179.178000 -39.081100 -0.002282 -0.040193 0.005207 -0.005598 18.595500 -40.985400 0.000008 0.000006 5.850830 7.551800 -66.274900 -11.754300 -0.000006 -0.000006 -0.007731 -0.085824 -20.067700
